<svg width="29" height="28" viewBox="0 0 29 28" fill="none" xmlns="http://www.w3.org/2000/svg">
<path d="M26.1667 9.94016V4.6435C26.1667 2.9985 25.42 2.3335 23.565 2.3335H18.8517C16.9967 2.3335 16.25 2.9985 16.25 4.6435V9.9285C16.25 11.5852 16.9967 12.2385 18.8517 12.2385H23.565C25.42 12.2502 26.1667 11.5852 26.1667 9.94016Z" stroke="#CCCCCC" stroke-width="1.5" stroke-linecap="round" stroke-linejoin="round"/>
<path d="M26.1667 23.065V18.3517C26.1667 16.4967 25.42 15.75 23.565 15.75H18.8517C16.9967 15.75 16.25 16.4967 16.25 18.3517V23.065C16.25 24.92 16.9967 25.6667 18.8517 25.6667H23.565C25.42 25.6667 26.1667 24.92 26.1667 23.065Z" stroke="#CCCCCC" stroke-width="1.5" stroke-linecap="round" stroke-linejoin="round"/>
<path d="M12.7499 9.94016V4.6435C12.7499 2.9985 12.0033 2.3335 10.1483 2.3335H5.43492C3.57992 2.3335 2.83325 2.9985 2.83325 4.6435V9.9285C2.83325 11.5852 3.57992 12.2385 5.43492 12.2385H10.1483C12.0033 12.2502 12.7499 11.5852 12.7499 9.94016Z" stroke="#CCCCCC" stroke-width="1.5" stroke-linecap="round" stroke-linejoin="round"/>
<path d="M12.7499 23.065V18.3517C12.7499 16.4967 12.0033 15.75 10.1483 15.75H5.43492C3.57992 15.75 2.83325 16.4967 2.83325 18.3517V23.065C2.83325 24.92 3.57992 25.6667 5.43492 25.6667H10.1483C12.0033 25.6667 12.7499 24.92 12.7499 23.065Z" stroke="#CCCCCC" stroke-width="1.5" stroke-linecap="round" stroke-linejoin="round"/>
</svg>
