<svg width="28" height="28" viewBox="0 0 28 28" fill="none" xmlns="http://www.w3.org/2000/svg">
<path d="M11.7166 3.67535L11.7171 3.67499C12.982 2.65903 15.0123 2.66499 16.2962 3.68774C16.2963 3.68784 16.2965 3.68795 16.2966 3.68805L23.9332 9.79732C23.9338 9.79784 23.9345 9.79836 23.9351 9.79888C24.3752 10.1584 24.7564 10.7211 25.0023 11.3647C25.248 12.0077 25.3397 12.6817 25.2541 13.243L23.7854 22.032C23.7853 22.0327 23.7852 22.0333 23.7851 22.0339C23.4938 23.7055 21.8672 25.0835 20.1835 25.0835H7.81679C6.10824 25.0835 4.51809 23.7391 4.22692 22.0461C4.22685 22.0457 4.22679 22.0453 4.22672 22.0449L2.75714 13.2507L2.75692 13.2494C2.66108 12.6839 2.7471 12.0086 2.99225 11.3657C3.23738 10.7229 3.62323 10.1608 4.07393 9.80117L4.07495 9.80035L11.7166 3.67535ZM14.0001 22.4585C14.8006 22.4585 15.4585 21.8007 15.4585 21.0002V17.5002C15.4585 16.6997 14.8006 16.0419 14.0001 16.0419C13.1996 16.0419 12.5418 16.6997 12.5418 17.5002V21.0002C12.5418 21.8007 13.1996 22.4585 14.0001 22.4585Z" fill="#CCCCCC" stroke="#CCCCCC" stroke-width="1.16667"/>
</svg>
