<svg width="28" height="28" viewBox="0 0 28 28" fill="none" xmlns="http://www.w3.org/2000/svg">
<path d="M22.7499 14.5832C22.7499 12.9732 24.0566 11.6665 25.6666 11.6665V10.4998C25.6666 5.83317 24.4999 4.6665 19.8333 4.6665H8.16659C3.49992 4.6665 2.33325 5.83317 2.33325 10.4998V11.0832C3.94325 11.0832 5.24992 12.3898 5.24992 13.9998C5.24992 15.6098 3.94325 16.9165 2.33325 16.9165V17.4998C2.33325 22.1665 3.49992 23.3332 8.16659 23.3332H19.8333C24.4999 23.3332 25.6666 22.1665 25.6666 17.4998C24.0566 17.4998 22.7499 16.1932 22.7499 14.5832Z" stroke="#CCCCCC" stroke-width="1.75" stroke-linecap="round" stroke-linejoin="round"/>
<path d="M11.6667 4.6665L11.6667 23.3332" stroke="#CCCCCC" stroke-width="1.75" stroke-linecap="round" stroke-linejoin="round" stroke-dasharray="5.83 5.83"/>
</svg>
