<svg width="212" height="210" viewBox="0 0 212 210" fill="none" xmlns="http://www.w3.org/2000/svg">
<path d="M114.091 100.327L182.024 90.7797C193.709 89.1375 199.548 96.1935 200.689 104.314C201.858 112.632 197.936 120.656 186.449 122.27L33.9481 143.703C22.461 145.317 16.4797 138.685 15.3107 130.367C14.1695 122.247 17.8372 113.855 29.5224 112.212L73.6883 106.005L71.1554 87.9824L33.9213 93.2153C21.84 94.9132 15.6854 89.9212 14.4885 81.4048C13.3194 73.0866 17.804 66.1954 29.8853 64.4975L143.37 48.5482L142.257 40.6261C141.811 37.4572 140.654 36.4081 137.287 36.8813L29.5459 52.0233C18.0588 53.6377 11.8763 48.4477 10.6516 39.7333C9.51037 31.6131 13.7412 24.3536 25.4264 22.7114L151.983 4.92506C168.817 2.55912 177.126 5.63269 179.297 21.0809L182.999 47.422C185.17 62.8702 184.321 75.5114 182.123 84.3028L143.701 89.7027C144.784 85.9151 145.416 81.787 145.822 77.4887L111.558 82.3041L114.091 100.327ZM78.0091 171.239L184.76 156.236C196.841 154.538 202.399 161.028 203.512 168.95C204.653 177.07 200.902 184.868 189.019 186.538L64.6411 204.018C42.261 207.164 35.2895 200.671 32.3947 180.073L30.6411 167.596C28.804 154.524 37.6148 148.237 48.7058 146.678C59.7968 145.119 69.4329 149.016 71.2421 161.89L72.0215 167.435C72.5782 171.396 73.652 171.851 78.0091 171.239Z" fill="#FCC434"/>
</svg>
