<svg width="191" height="201" viewBox="0 0 191 201" fill="none" xmlns="http://www.w3.org/2000/svg">
<path d="M186.871 32.6304L180.593 122.411L140.69 119.621L146.968 29.8402C147.875 16.8718 157.726 10.7441 168.301 11.4835C178.875 12.223 187.778 19.6621 186.871 32.6304ZM118.883 116.091L36.2849 110.315C12.3433 108.641 6.19189 101.996 7.61492 81.6456L11.019 32.9645C12.4421 12.6142 19.4445 7.08916 43.3861 8.76331L114.812 13.7579C124.588 14.4415 127.547 20.8636 127.017 28.445C126.473 36.2261 122.449 42.1598 112.872 41.4902L55.0137 37.4443C51.4225 37.1932 49.7427 38.2786 49.4915 41.8699L49.1428 46.8577L109.196 51.057C118.972 51.7406 123.013 57.0354 122.427 65.4149C121.855 73.595 116.931 78.0624 107.355 77.3927L47.3012 73.1934L46.9106 78.7797C46.6594 82.371 48.1718 83.6796 51.7631 83.9308L120.794 88.7579C130.571 89.4415 133.53 95.8636 133 103.445C132.456 111.226 128.46 116.761 118.883 116.091ZM53.0705 119.709L140.457 125.82C168.987 127.815 181.336 143.314 179.83 164.861C178.323 186.409 163.937 200.038 135.407 198.043L48.0201 191.933C19.2903 189.924 7.16876 174.04 8.64759 152.891C10.1264 131.743 24.3406 117.7 53.0705 119.709ZM59.4662 165.868L127.899 170.653C135.281 171.169 138.952 167.416 139.328 162.029C139.705 156.642 136.592 152.415 129.21 151.899L60.7776 147.114C53.1961 146.583 49.5254 150.336 49.1487 155.723C48.772 161.11 51.8847 165.338 59.4662 165.868Z" fill="#FCC434"/>
</svg>
